<?xml version="1.0" encoding="utf-8"?>
<!-- Generator: Adobe Illustrator 21.1.0, SVG Export Plug-In . SVG Version: 6.00 Build 0)  -->
<svg version="1.0" id="Layer_1" xmlns="http://www.w3.org/2000/svg" xmlns:xlink="http://www.w3.org/1999/xlink" x="0px" y="0px"
	 width="240px" height="56px" viewBox="0 0 240 56" enable-background="new 0 0 240 56" xml:space="preserve">
<g>
	<path fill="#171717" d="M39.3,49.6c-1.9,0.8-3.9,1.5-6.1,2c-2.2,0.5-4.3,0.8-6.1,0.8c-5,0-9.4-1-13.2-2.9c-3.8-1.9-6.7-4.6-8.7-8.1
		s-3.1-7.3-3.1-11.7c0-5.5,1.1-10.2,3.3-14c2.2-3.8,5.1-6.7,8.8-8.6c3.7-1.9,7.7-2.8,12.2-2.8c2.9,0,5.5,0.3,8.1,1
		c2.5,0.6,4.7,1.5,6.7,2.5l-3,8.6c-1.2-0.7-2.9-1.3-5.1-1.9c-2.2-0.6-4-0.9-5.4-0.9c-5.1,0-9,1.3-11.7,3.8
		c-2.7,2.6-4.1,6.4-4.1,11.4c0,2.9,0.7,5.4,2,7.6c1.3,2.2,3.2,3.8,5.5,5c2.4,1.2,5.1,1.7,8.1,1.7c2.9,0,5.1-0.4,6.5-1.2v-5.7h-8.1
		v-9h17.5v19.9C42.4,48,41.2,48.8,39.3,49.6z"/>
	<path fill="#171717" d="M82.3,24v28h-9v-3.5c-2.7,2.8-5.8,4.2-9.3,4.2c-4.1,0-7.5-1.2-10.1-3.7c-2.6-2.5-3.9-6.1-3.9-11
		c0-3.1,0.6-5.8,1.9-8.1c1.3-2.3,2.9-4.1,5-5.4c2.1-1.3,4.3-1.9,6.7-1.9c2.5,0,4.4,0.4,5.9,1.1c1.4,0.7,2.7,1.8,3.8,3.2L74,24H82.3z
		 M73.4,41.2v-6.8c-0.5-1.4-1.4-2.5-2.7-3.3c-1.3-0.8-2.7-1.2-4.4-1.2c-2,0-3.6,0.7-5,2.2c-1.4,1.5-2.1,3.3-2.1,5.5
		c0,1.5,0.3,2.8,1,4c0.7,1.2,1.6,2.2,2.7,2.8c1.1,0.7,2.4,1,3.7,1C69.7,45.4,72,44,73.4,41.2z"/>
	<path fill="#171717" d="M117.6,25c1.8,1.6,2.7,3.6,2.7,6v20.9h-9V34.3c-0.1-2.7-1.5-4.1-4.1-4.1c-2,0-3.7,1-4.9,2.9
		c-1.2,1.9-1.9,4.4-1.9,7.4v11.4h-9V24h8.1l0.6,4.5c1-1.8,2.4-3.3,4.3-4.3c1.8-1,4-1.5,6.4-1.5C113.7,22.6,115.9,23.4,117.6,25z"/>
	<path fill="#171717" d="M149.1,43.2l4,6.7c-1.5,0.9-3.2,1.5-4.9,2c-1.7,0.5-3.3,0.8-4.9,0.8c-3.3,0-6.2-0.6-8.6-1.9
		c-2.4-1.3-4.2-3-5.5-5.3c-1.2-2.3-1.9-4.9-1.9-7.8c0-2.7,0.7-5.2,2.1-7.6c1.4-2.3,3.4-4.1,5.9-5.5c2.5-1.3,5.2-2,8.1-2
		c4,0,7.3,1.2,9.9,3.5c2.6,2.3,4.3,5.7,5,10l-20.5,6.5c1.4,1.6,3.2,2.4,5.6,2.4C145.3,45.1,147.2,44.5,149.1,43.2z M138,31.6
		c-1.2,1.4-1.8,3.2-1.8,5.5v0.6l12.3-4.2c-0.9-2.6-2.8-4-5.7-4C140.8,29.6,139.2,30.3,138,31.6z"/>
	<path fill="#171717" d="M167.6,51.3c-2-0.8-3.7-1.9-5-3.4l3.7-4.9c2.5,2.3,4.8,3.5,7,3.5c1.2,0,2.1-0.2,2.8-0.5
		c0.7-0.4,1.1-0.9,1.1-1.6c0-0.9-0.4-1.5-1.2-2s-1.7-0.8-2.7-1.1c-1-0.3-1.7-0.5-2-0.6c-2.4-0.8-4.2-1.9-5.4-3.4
		c-1.2-1.5-1.8-3.3-1.8-5.2c0-1.5,0.4-3,1.2-4.4c0.8-1.4,2-2.6,3.7-3.5c1.7-0.9,3.7-1.4,6.2-1.4c2.3,0,4.3,0.2,5.9,0.7
		c1.6,0.5,3.2,1.2,4.7,2.3l-3.4,5.2c-0.9-0.7-1.8-1.2-2.8-1.7c-1-0.4-2-0.7-2.8-0.7c-1,0-1.9,0.2-2.5,0.6c-0.6,0.4-1,0.9-1,1.5
		c0,0.9,0.3,1.6,1.1,2c0.8,0.4,2,0.9,3.7,1.4c0.3,0.1,0.5,0.2,0.8,0.3c0.3,0.1,0.6,0.2,0.9,0.3c4.4,1.5,6.6,4.1,6.6,7.9
		c0,1.8-0.4,3.4-1.3,4.9c-0.9,1.5-2.3,2.7-4.1,3.6c-1.8,0.9-4,1.4-6.6,1.4C171.7,52.5,169.6,52.1,167.6,51.3z"/>
	<path fill="#171717" d="M223.6,24v28h-9v-3.5c-2.7,2.8-5.8,4.2-9.3,4.2c-4.1,0-7.5-1.2-10.1-3.7c-2.6-2.5-3.9-6.1-3.9-11
		c0-3.1,0.6-5.8,1.9-8.1c1.3-2.3,2.9-4.1,5-5.4c2.1-1.3,4.3-1.9,6.7-1.9c2.5,0,4.4,0.4,5.9,1.1c1.5,0.7,2.7,1.8,3.8,3.2l0.6-2.9
		H223.6z M214.7,41.2v-6.8c-0.5-1.4-1.4-2.5-2.7-3.3c-1.3-0.8-2.7-1.2-4.4-1.2c-2,0-3.6,0.7-5,2.2c-1.4,1.5-2.1,3.3-2.1,5.5
		c0,1.5,0.3,2.8,1,4c0.7,1.2,1.6,2.2,2.7,2.8c1.1,0.7,2.4,1,3.7,1C211,45.4,213.3,44,214.7,41.2z"/>
	<path fill="#171717" d="M230.6,44c0.9-0.9,2-1.4,3.2-1.4c1.1,0,2.1,0.5,3.1,1.4c0.9,0.9,1.4,2,1.4,3.3c0,1.3-0.5,2.4-1.4,3.3
		c-0.9,0.9-2,1.3-3.1,1.3c-1.2,0-2.3-0.4-3.2-1.3c-0.9-0.9-1.4-2-1.4-3.3C229.2,46,229.7,44.9,230.6,44z"/>
</g>
</svg>
