<?xml version="1.0" encoding="UTF-8"?>
<!DOCTYPE svg PUBLIC "-//W3C//DTD SVG 1.1//EN" "http://www.w3.org/Graphics/SVG/1.1/DTD/svg11.dtd">
<!-- Creator: CorelDRAW 2017 -->
<svg xmlns="http://www.w3.org/2000/svg" xml:space="preserve" width="62.7064mm" height="11.7856mm" version="1.1" style="shape-rendering:geometricPrecision; text-rendering:geometricPrecision; image-rendering:optimizeQuality; fill-rule:evenodd; clip-rule:evenodd"
viewBox="0 0 2132 401"
 xmlns:xlink="http://www.w3.org/1999/xlink">
 <defs>
  <style type="text/css">
   <![CDATA[
    .fil1 {fill:#373435}
    .fil0 {fill:#373435;fill-rule:nonzero}
   ]]>
  </style>
 </defs>
 <g id="Layer_x0020_1">
  <metadata id="CorelCorpID_0Corel-Layer"/>
  <g id="_1949471838128">
   <polygon class="fil0" points="212,5 212,47 49,47 49,178 212,178 212,221 49,221 49,352 212,352 212,394 0,394 0,5 "/>
   <polygon class="fil0" points="385,237 251,5 305,5 409,185 513,5 568,5 434,237 434,394 385,394 "/>
   <polygon class="fil0" points="818,5 818,47 655,47 655,178 818,178 818,221 655,221 655,352 818,352 818,394 606,394 606,5 "/>
   <path class="fil0" d="M987 189c-28,-9 -50,-22 -67,-39 -17,-17 -26,-37 -26,-61 0,-23 9,-44 26,-62 18,-18 39,-27 66,-27 26,0 48,9 66,27 10,9 17,23 22,40l-44 17c-5,-15 -10,-24 -15,-28 -9,-9 -19,-14 -30,-14 -11,0 -21,4 -30,13 -9,9 -13,20 -13,33 0,13 5,25 14,34 9,9 22,17 38,25 31,10 57,26 78,47 24,24 36,52 36,84 0,33 -12,61 -36,84 -24,24 -53,36 -87,36 -35,0 -64,-12 -88,-37 -19,-19 -30,-43 -35,-72l47 -17c3,28 11,49 24,62 14,15 32,22 51,22 20,0 38,-7 52,-22 15,-15 22,-33 22,-55 0,-22 -7,-40 -22,-55 -15,-15 -32,-26 -52,-34z"/>
   <path class="fil0" d="M1354 315l47 17c-9,12 -17,22 -22,27 -27,28 -61,41 -100,41 -39,0 -72,-14 -100,-41 -27,-27 -41,-59 -41,-96 0,-37 14,-69 41,-96 27,-27 60,-41 100,-41 40,0 73,13 99,40 6,6 14,15 23,28l-47 17c-6,-8 -11,-13 -13,-16 -18,-17 -38,-26 -63,-26 -24,0 -45,9 -63,27 -18,18 -27,40 -27,67 0,26 9,49 27,66 18,18 39,27 63,27 24,0 45,-9 64,-27 2,-2 6,-6 12,-14z"/>
   <path class="fil0" d="M1575 127c39,0 73,13 100,41 27,27 40,59 40,97 0,37 -13,69 -40,96 -27,27 -60,41 -100,41 -39,0 -72,-14 -100,-41 -27,-27 -41,-59 -41,-96 0,-37 14,-70 41,-97 27,-27 60,-41 100,-41zm0 43c-24,0 -46,9 -63,27 -18,18 -27,40 -27,67 0,26 9,48 27,66 18,18 39,27 63,27 24,0 45,-9 63,-27 18,-18 27,-40 27,-66 0,-27 -9,-49 -27,-67 -18,-18 -39,-27 -63,-27z"/>
   <path class="fil0" d="M1894 127c39,0 73,13 100,41 27,27 40,59 40,97 0,37 -13,69 -40,96 -27,27 -60,41 -100,41 -39,0 -72,-14 -100,-41 -27,-27 -41,-59 -41,-96 0,-37 14,-70 41,-97 27,-27 60,-41 100,-41zm0 43c-24,0 -46,9 -63,27 -18,18 -27,40 -27,67 0,26 9,48 27,66 18,18 39,27 63,27 24,0 45,-9 63,-27 18,-18 27,-40 27,-66 0,-27 -9,-49 -27,-67 -18,-18 -39,-27 -63,-27z"/>
   <polygon class="fil0" points="2132,5 2132,394 2083,394 2083,5 "/>
   <circle class="fil1" cx="1575" cy="264" r="36"/>
   <circle class="fil1" cx="1894" cy="264" r="36"/>
  </g>
 </g>
</svg>
